<svg width="260" height="260" viewBox="0 0 260 260" fill="none" xmlns="http://www.w3.org/2000/svg">
<rect width="260" height="260" fill="white"/>
<path d="M99.1241 108.391C106.413 116.374 110.066 126.141 110.066 137.683C110.066 149.234 106.413 158.975 99.1241 166.907C91.8526 174.847 82.6002 178.809 71.3757 178.809C61.0343 178.809 52.528 175.121 45.8567 167.73H45.548V176.545H19V46H45.8567V106.093C52.528 99.6276 61.0343 96.3863 71.3757 96.3863C82.6002 96.3863 91.8526 100.391 99.1241 108.391ZM76.5206 150.82C79.8563 147.441 81.5284 143.06 81.5284 137.683C81.5284 132.315 79.7791 127.908 76.2805 124.478C72.7991 121.031 68.4773 119.298 63.3152 119.298C58.256 119.298 53.9857 121.031 50.4871 124.478C46.9886 127.908 45.2393 132.315 45.2393 137.683C45.2393 142.948 46.9285 147.304 50.3156 150.751C53.7199 154.181 58.0502 155.896 63.3152 155.896C68.7775 155.896 73.1764 154.207 76.5206 150.82Z" fill="black"/>
<path d="M129.092 139.775C133.962 139.775 138.087 141.473 141.474 144.852C144.852 148.239 146.55 152.363 146.55 157.234C146.55 161.993 144.852 166.066 141.474 169.445C138.087 172.823 133.962 174.521 129.092 174.521C124.333 174.521 120.259 172.823 116.881 169.445C113.494 166.066 111.805 161.993 111.805 157.234C111.805 152.363 113.494 148.239 116.881 144.852C120.259 141.473 124.333 139.775 129.092 139.775Z" fill="black"/>
<path d="M153.7 191.396L175.721 180.592C179.768 187.289 186.799 190.642 196.815 190.642C201.454 190.642 205.776 189.141 209.78 186.149C213.776 183.147 215.783 178.568 215.783 172.394V166.632C211.024 171.897 202.517 174.521 190.264 174.521C179.03 174.521 169.77 170.559 162.481 162.619C155.209 154.687 151.574 144.946 151.574 133.396C151.574 121.854 155.209 112.087 162.481 104.104C169.77 96.1033 179.03 92.0988 190.264 92.0988C200.296 92.0988 208.657 95.1858 215.337 101.36H215.783V94.3626H242.639V174.384C242.639 187.023 238.438 196.79 230.051 203.676C221.656 210.553 210.578 214 196.815 214C174.537 214 160.166 206.463 153.7 191.396ZM185.324 120.19C181.843 123.62 180.111 128.028 180.111 133.396C180.111 138.772 181.774 143.154 185.119 146.532C188.454 149.92 192.853 151.609 198.324 151.609C203.58 151.609 207.902 149.894 211.289 146.464C214.694 143.017 216.4 138.661 216.4 133.396C216.4 128.028 214.651 123.62 211.152 120.19C207.654 116.743 203.375 115.011 198.324 115.011C193.153 115.011 188.823 116.743 185.324 120.19Z" fill="black"/>
<path d="M129 139C119.063 139 111 147.062 111 157C111 166.946 119.063 175 129 175C138.946 175 147 166.946 147 157C147 147.062 138.946 139 129 139Z" fill="#A0BAE1"/>
</svg>
